<svg width="20" height="20" viewBox="0 0 20 20" fill="none" xmlns="http://www.w3.org/2000/svg">
<path d="M17.2544 2.74408C17.5799 3.06951 17.5799 3.59715 17.2544 3.92259L3.92108 17.2559C3.59565 17.5814 3.06801 17.5814 2.74257 17.2559C2.41714 16.9305 2.41714 16.4028 2.74257 16.0774L16.0759 2.74408C16.4013 2.41864 16.929 2.41864 17.2544 2.74408Z" fill="#667185"/>
<path d="M13.1648 4.4767C12.2262 4.03469 11.1679 3.75 9.99848 3.75C7.54507 3.75 5.5808 5.00308 4.18482 6.33307C2.78563 7.66611 1.87775 9.14973 1.51836 9.7915C1.28284 10.2121 1.25479 10.7143 1.44812 11.1603C1.58313 11.4718 1.81273 11.9544 2.15114 12.5143C2.38919 12.9082 2.90148 13.0346 3.29537 12.7965C3.68927 12.5585 3.81561 12.0462 3.57757 11.6523C3.30538 11.2019 3.1165 10.8124 3.00194 10.5537C3.34007 9.95778 4.14086 8.67693 5.33447 7.53975C6.56736 6.36513 8.14019 5.41667 9.99848 5.41667C10.6669 5.41667 11.2983 5.53937 11.8903 5.75116L13.1648 4.4767Z" fill="#667185"/>
<path d="M14.7406 7.61491C15.8911 8.73288 16.6643 9.97087 16.995 10.5537C16.8805 10.8124 16.6916 11.2019 16.4194 11.6523C16.1813 12.0462 16.3077 12.5585 16.7016 12.7965C17.0955 13.0346 17.6078 12.9082 17.8458 12.5143C18.1842 11.9544 18.4138 11.4718 18.5488 11.1603C18.7422 10.7143 18.7141 10.2121 18.4786 9.7915C18.1285 9.16625 17.2577 7.74193 15.9192 6.43629L14.7406 7.61491Z" fill="#667185"/>
<path d="M9.99849 6.66667C10.3013 6.66667 10.5966 6.69898 10.8811 6.76034L9.16628 8.47519C8.45503 8.7262 7.89136 9.28987 7.64035 10.0011L5.9255 11.716C5.86414 11.4315 5.83183 11.1362 5.83183 10.8333C5.83183 8.53215 7.69731 6.66667 9.99849 6.66667Z" fill="#667185"/>
<path d="M9.99849 13.3333C9.7061 13.3333 9.42543 13.2831 9.16463 13.1909L7.91376 14.4418C8.52693 14.7968 9.23898 15 9.99849 15C12.2997 15 14.1652 13.1345 14.1652 10.8333C14.1652 10.0738 13.9619 9.36177 13.6069 8.74859L12.3561 9.99947C12.4483 10.2603 12.4985 10.5409 12.4985 10.8333C12.4985 12.214 11.3792 13.3333 9.99849 13.3333Z" fill="#667185"/>
</svg>
